<svg version="1.1" id="Layer_1" xmlns="http://www.w3.org/2000/svg" xmlns:xlink="http://www.w3.org/1999/xlink" x="0px" y="0px"
	 width="912" height="936" viewBox="0 0 912 936" xml:space="preserve">
<path fill="transparent" opacity="1.000000" stroke="none"
	d="
M1.000000,343.000000 
	C1.000000,228.666672 1.000000,114.833336 1.000000,1.000000 
	C305.000000,1.000000 609.000000,1.000000 913.000000,1.000000 
	C913.000000,313.000000 913.000000,625.000000 913.000000,937.000000 
	C609.000000,937.000000 305.000000,937.000000 1.000000,937.000000 
	C1.000000,739.166687 1.000000,541.333313 1.000000,343.000000 
M203.866943,702.500000 
	C203.889725,716.668823 203.990906,730.838196 203.886307,745.006104 
	C203.855911,749.121155 205.205765,752.156128 208.222702,755.058228 
	C220.468567,766.837830 232.510239,778.830933 244.559723,790.813171 
	C269.019348,815.136292 293.472260,839.466553 317.816589,863.904846 
	C320.500397,866.598938 323.206543,867.724609 327.014923,867.717102 
	C381.508820,867.610291 436.003021,867.644226 490.497131,867.644531 
	C519.485352,867.644714 548.473572,867.651917 577.461792,867.622009 
	C578.648315,867.620789 579.834412,867.273438 581.853760,866.956726 
	C577.972961,862.745911 574.870178,859.073853 571.453308,855.722107 
	C551.594177,836.241150 531.657043,816.839783 511.754333,797.403320 
	C497.928955,783.901917 484.054291,770.449463 470.391602,756.785217 
	C468.981201,755.374512 468.250885,752.668213 468.243866,750.559631 
	C468.051331,692.568604 468.048859,634.576904 467.811890,576.586182 
	C467.792389,571.813354 469.423920,570.771179 473.838531,570.778687 
	C540.327332,570.891418 606.816406,570.881653 673.305359,570.829407 
	C685.032227,570.820190 683.423462,572.418396 683.435303,560.878601 
	C683.492554,504.896576 683.464600,448.914520 683.430725,392.932495 
	C683.429565,391.042175 683.042908,389.152130 682.842346,387.320282 
	C657.948120,387.320282 633.640747,387.320587 609.333374,387.320190 
	C564.677307,387.319458 520.021057,387.261536 475.365448,387.404236 
	C470.842224,387.418671 469.342712,386.144775 469.369080,381.512878 
	C469.486694,360.853271 469.385620,340.189636 469.055450,319.532410 
	C468.979095,314.754456 470.363770,313.243561 475.220367,313.292572 
	C503.545868,313.578522 531.874390,313.600128 560.202026,313.634247 
	C595.359375,313.676575 630.517029,313.697052 665.673950,313.568420 
	C669.499207,313.554382 672.169373,314.772888 674.840210,317.443024 
	C712.785278,355.378296 750.824280,393.219727 788.850159,431.074219 
	C790.055725,432.274353 791.363770,433.371490 793.348267,435.174744 
	C793.524536,432.562439 793.699768,431.118378 793.707581,429.673401 
	C793.790955,414.176727 793.933533,398.679718 793.895813,383.183197 
	C793.793884,341.358612 793.550659,299.534332 793.485107,257.709747 
	C793.445679,232.548782 793.703003,207.387238 793.606873,182.226761 
	C793.597717,179.838943 792.645386,176.866455 791.057678,175.169601 
	C781.613464,165.075958 771.971558,155.159195 762.176086,145.403946 
	C737.029480,120.360588 711.553589,95.642914 686.706055,70.307915 
	C680.686890,64.170738 674.644836,61.882847 666.210327,61.900764 
	C523.895630,62.203033 381.580444,62.240887 239.265320,62.300133 
	C229.104675,62.304363 218.939865,62.142300 208.785339,61.805775 
	C205.135025,61.684799 203.466995,62.785355 203.841187,66.571564 
	C204.020584,68.386787 203.867188,70.234749 203.867188,72.067879 
	C203.866928,281.878571 203.866943,491.689301 203.866943,702.500000 
z"/>
<path fill="#BA9F70" opacity="1.000000" stroke="none" 
	d="
M203.866943,702.000000 
	C203.866943,491.689301 203.866928,281.878571 203.867188,72.067879 
	C203.867188,70.234749 204.020584,68.386787 203.841187,66.571564 
	C203.466995,62.785355 205.135025,61.684799 208.785339,61.805775 
	C218.939865,62.142300 229.104675,62.304363 239.265320,62.300133 
	C381.580444,62.240887 523.895630,62.203033 666.210327,61.900764 
	C674.644836,61.882847 680.686890,64.170738 686.706055,70.307915 
	C711.553589,95.642914 737.029480,120.360588 762.176086,145.403946 
	C771.971558,155.159195 781.613464,165.075958 791.057678,175.169601 
	C792.645386,176.866455 793.597717,179.838943 793.606873,182.226761 
	C793.703003,207.387238 793.445679,232.548782 793.485107,257.709747 
	C793.550659,299.534332 793.793884,341.358612 793.895813,383.183197 
	C793.933533,398.679718 793.790955,414.176727 793.707581,429.673401 
	C793.699768,431.118378 793.524536,432.562439 793.348267,435.174744 
	C791.363770,433.371490 790.055725,432.274353 788.850159,431.074219 
	C750.824280,393.219727 712.785278,355.378296 674.840210,317.443024 
	C672.169373,314.772888 669.499207,313.554382 665.673950,313.568420 
	C630.517029,313.697052 595.359375,313.676575 560.202026,313.634247 
	C531.874390,313.600128 503.545868,313.578522 475.220367,313.292572 
	C470.363770,313.243561 468.979095,314.754456 469.055450,319.532410 
	C469.385620,340.189636 469.486694,360.853271 469.369080,381.512878 
	C469.342712,386.144775 470.842224,387.418671 475.365448,387.404236 
	C520.021057,387.261536 564.677307,387.319458 609.333374,387.320190 
	C633.640747,387.320587 657.948120,387.320282 682.842346,387.320282 
	C683.042908,389.152130 683.429565,391.042175 683.430725,392.932495 
	C683.464600,448.914520 683.492554,504.896576 683.435303,560.878601 
	C683.423462,572.418396 685.032227,570.820190 673.305359,570.829407 
	C606.816406,570.881653 540.327332,570.891418 473.838531,570.778687 
	C469.423920,570.771179 467.792389,571.813354 467.811890,576.586182 
	C468.048859,634.576904 468.051331,692.568604 468.243866,750.559631 
	C468.250885,752.668213 468.981201,755.374512 470.391602,756.785217 
	C484.054291,770.449463 497.928955,783.901917 511.754333,797.403320 
	C531.657043,816.839783 551.594177,836.241150 571.453308,855.722107 
	C574.870178,859.073853 577.972961,862.745911 581.853760,866.956726 
	C579.834412,867.273438 578.648315,867.620789 577.461792,867.622009 
	C548.473572,867.651917 519.485352,867.644714 490.497131,867.644531 
	C436.003021,867.644226 381.508820,867.610291 327.014923,867.717102 
	C323.206543,867.724609 320.500397,866.598938 317.816589,863.904846 
	C293.472260,839.466553 269.019348,815.136292 244.559723,790.813171 
	C232.510239,778.830933 220.468567,766.837830 208.222702,755.058228 
	C205.205765,752.156128 203.855911,749.121155 203.886307,745.006104 
	C203.990906,730.838196 203.889725,716.668823 203.866943,702.000000 
M344.701904,500.499756 
	C344.701904,592.329224 344.701691,684.158691 344.702057,775.988159 
	C344.702148,797.981384 344.765778,819.974915 344.643585,841.967407 
	C344.623596,845.566650 345.544739,846.841858 349.421753,846.834900 
	C407.745422,846.731445 466.069366,846.796570 524.393250,846.796509 
	C525.614014,846.796509 526.834717,846.492859 529.009705,846.204285 
	C527.022705,844.113281 525.722290,842.666626 524.340454,841.302368 
	C499.322113,816.601807 474.325958,791.878601 449.217957,767.269470 
	C446.740662,764.841431 445.808655,762.386841 445.820160,758.960876 
	C445.923798,728.129578 445.780579,697.297485 445.871002,666.466064 
	C445.981415,628.809692 446.267670,591.153870 446.406250,553.497559 
	C446.416962,550.591553 447.257263,549.208008 450.386505,549.309631 
	C454.043213,549.428406 457.712158,549.086304 461.375671,549.089905 
	C526.531738,549.154114 591.687805,549.212219 656.843628,549.391174 
	C660.815308,549.402100 661.957458,548.078979 661.947693,544.196716 
	C661.839905,501.368500 661.885742,458.539917 661.885437,415.711426 
	C661.885376,408.637787 661.875244,408.619995 654.857422,408.627502 
	C593.862244,408.692627 532.867065,408.769653 471.871918,408.826996 
	C465.707855,408.832794 459.541992,408.618500 453.380066,408.712036 
	C446.919006,408.810089 446.882782,408.918335 446.894714,402.701050 
	C446.962402,367.371796 447.117523,332.042358 447.043274,296.713440 
	C447.034149,292.370331 448.241425,290.915833 452.686096,290.990387 
	C470.678711,291.292328 488.677002,291.319031 506.673279,291.332428 
	C554.670959,291.368164 602.668640,291.350983 650.666321,291.338409 
	C658.994995,291.336212 667.342651,290.918243 675.642212,291.387177 
	C678.613647,291.555054 682.167114,293.073547 684.271423,295.165894 
	C710.504639,321.250305 736.525879,347.547882 762.582092,373.810181 
	C765.449402,376.700134 768.195007,379.710846 770.997009,382.665558 
	C771.374268,382.483429 771.751465,382.301300 772.128662,382.119171 
	C772.128662,379.055054 772.128601,375.990967 772.128601,372.926880 
	C772.128540,317.429535 772.177490,261.932129 772.081238,206.434967 
	C772.064697,196.895554 774.571350,196.930496 762.302795,196.873642 
	C735.808411,196.750870 709.313049,196.834747 682.818115,196.834778 
	C572.656738,196.834900 462.495392,196.833481 352.334045,196.839508 
	C344.709412,196.839920 344.703125,196.866119 344.703003,204.513931 
	C344.701508,302.842529 344.701935,401.171112 344.701904,500.499756 
M320.705170,746.500244 
	C320.766449,738.335938 320.883728,730.171692 320.880615,722.007385 
	C320.831116,591.199341 320.766327,460.391266 320.702972,329.583191 
	C320.702332,328.250397 320.661682,326.917603 320.659973,325.584778 
	C320.603577,281.269653 320.495667,236.954422 320.600037,192.639679 
	C320.608215,189.171661 319.874878,186.723770 317.414490,184.275162 
	C288.713501,155.711288 260.108337,127.051132 231.461685,98.432556 
	C230.369156,97.341095 229.113556,96.412880 226.890106,94.519943 
	C226.890106,98.162216 226.890137,100.429863 226.890121,102.697502 
	C226.890121,292.996124 226.890060,483.294769 226.890121,673.593384 
	C226.890121,695.086426 226.760757,716.581299 227.052185,738.070374 
	C227.089401,740.815796 228.697098,744.131775 230.644730,746.156738 
	C238.955063,754.796814 247.710480,763.006836 256.222382,771.455505 
	C276.090118,791.175720 295.907806,810.946350 315.759186,830.683044 
	C316.987610,831.904297 318.332031,833.008911 320.705109,835.140076 
	C320.705109,804.960571 320.705109,776.230469 320.705170,746.500244 
M649.499756,173.638962 
	C684.962585,173.638962 720.425415,173.638962 755.888245,173.638962 
	C756.025513,173.121216 756.162781,172.603470 756.300110,172.085724 
	C750.296997,166.131470 744.275146,160.195984 738.294128,154.219650 
	C716.140381,132.083374 693.931091,110.001732 671.936035,87.708862 
	C668.949097,84.681541 665.809326,84.310692 662.063782,84.314117 
	C529.119263,84.435684 396.174805,84.519516 263.230316,84.608139 
	C258.981781,84.610970 254.733231,84.608505 249.330490,84.608505 
	C251.178223,86.644646 252.291321,87.975494 253.511108,89.200073 
	C280.081329,115.875099 306.715088,142.487244 333.175903,169.270264 
	C336.377960,172.511307 339.606628,173.732635 344.120148,173.727493 
	C445.579895,173.612030 547.039795,173.638901 649.499756,173.638962 
z"/>
<path fill="#2E2D2C" opacity="1.000000" stroke="none" 
	d="
M344.701904,499.999756 
	C344.701935,401.171112 344.701508,302.842529 344.703003,204.513931 
	C344.703125,196.866119 344.709412,196.839920 352.334045,196.839508 
	C462.495392,196.833481 572.656738,196.834900 682.818115,196.834778 
	C709.313049,196.834747 735.808411,196.750870 762.302795,196.873642 
	C774.571350,196.930496 772.064697,196.895554 772.081238,206.434967 
	C772.177490,261.932129 772.128540,317.429535 772.128601,372.926880 
	C772.128601,375.990967 772.128662,379.055054 772.128662,382.119171 
	C771.751465,382.301300 771.374268,382.483429 770.997009,382.665558 
	C768.195007,379.710846 765.449402,376.700134 762.582092,373.810181 
	C736.525879,347.547882 710.504639,321.250305 684.271423,295.165894 
	C682.167114,293.073547 678.613647,291.555054 675.642212,291.387177 
	C667.342651,290.918243 658.994995,291.336212 650.666321,291.338409 
	C602.668640,291.350983 554.670959,291.368164 506.673279,291.332428 
	C488.677002,291.319031 470.678711,291.292328 452.686096,290.990387 
	C448.241425,290.915833 447.034149,292.370331 447.043274,296.713440 
	C447.117523,332.042358 446.962402,367.371796 446.894714,402.701050 
	C446.882782,408.918335 446.919006,408.810089 453.380066,408.712036 
	C459.541992,408.618500 465.707855,408.832794 471.871918,408.826996 
	C532.867065,408.769653 593.862244,408.692627 654.857422,408.627502 
	C661.875244,408.619995 661.885376,408.637787 661.885437,415.711426 
	C661.885742,458.539917 661.839905,501.368500 661.947693,544.196716 
	C661.957458,548.078979 660.815308,549.402100 656.843628,549.391174 
	C591.687805,549.212219 526.531738,549.154114 461.375671,549.089905 
	C457.712158,549.086304 454.043213,549.428406 450.386505,549.309631 
	C447.257263,549.208008 446.416962,550.591553 446.406250,553.497559 
	C446.267670,591.153870 445.981415,628.809692 445.871002,666.466064 
	C445.780579,697.297485 445.923798,728.129578 445.820160,758.960876 
	C445.808655,762.386841 446.740662,764.841431 449.217957,767.269470 
	C474.325958,791.878601 499.322113,816.601807 524.340454,841.302368 
	C525.722290,842.666626 527.022705,844.113281 529.009705,846.204285 
	C526.834717,846.492859 525.614014,846.796509 524.393250,846.796509 
	C466.069366,846.796570 407.745422,846.731445 349.421753,846.834900 
	C345.544739,846.841858 344.623596,845.566650 344.643585,841.967407 
	C344.765778,819.974915 344.702148,797.981384 344.702057,775.988159 
	C344.701691,684.158691 344.701904,592.329224 344.701904,499.999756 
M431.067566,336.500000 
	C431.067566,315.913452 431.067566,295.326904 431.067566,274.417023 
	C433.634491,274.301880 435.433685,274.140564 437.231659,274.153717 
	C448.225433,274.234314 459.219116,274.459167 470.212524,274.442474 
	C508.701721,274.384003 547.190735,274.213226 585.679932,274.150085 
	C617.174805,274.098419 648.670532,274.037292 680.164062,274.246399 
	C685.055298,274.278870 688.671082,272.911682 692.079834,269.504150 
	C710.461548,251.128677 728.981934,232.891891 747.438904,214.591522 
	C747.948853,214.085831 748.281494,213.401367 749.132324,212.169983 
	C745.401978,212.169983 742.461670,212.171600 739.521301,212.169739 
	C615.710449,212.091415 491.899658,212.012054 368.088837,211.936066 
	C360.937439,211.931686 360.932556,211.944443 360.928589,218.828156 
	C360.878265,306.312714 360.827209,393.797302 360.812195,481.281860 
	C360.812042,482.136993 361.294556,482.992157 361.715576,484.392120 
	C363.403381,482.969879 364.730255,481.996857 365.889191,480.853577 
	C386.525299,460.495972 407.097687,440.073395 427.815247,419.799103 
	C430.450989,417.219727 431.345673,414.550751 431.320007,410.982330 
	C431.143890,386.488861 431.132202,361.994263 431.067566,336.500000 
M360.809998,713.499939 
	C360.809998,751.960571 360.809998,790.421143 360.809998,828.881775 
	C361.569214,829.258179 362.328430,829.634583 363.087646,830.010986 
	C367.389496,825.180725 371.474457,820.134338 376.032776,815.559631 
	C391.672455,799.863708 407.389771,784.242432 423.271790,768.792419 
	C428.321930,763.879700 431.155426,758.608948 430.911621,751.293518 
	C430.490204,738.648315 430.786926,725.979187 430.787720,713.320068 
	C430.791473,654.667114 430.794098,596.014160 430.819641,537.361206 
	C430.820251,535.945007 431.083740,534.528931 431.257172,532.785522 
	C495.441254,532.785522 559.138550,532.785522 623.369629,532.785522 
	C622.687012,531.751648 622.420349,531.157288 621.990601,530.724854 
	C612.369751,521.043213 602.806091,511.301788 593.007080,501.803253 
	C591.673889,500.510925 589.151672,499.917816 587.171814,499.899872 
	C561.189636,499.664459 535.206116,499.520782 509.222778,499.491821 
	C461.729156,499.438904 414.235168,499.544922 366.742096,499.376678 
	C361.898865,499.359528 360.574585,500.723297 360.697784,505.548096 
	C361.041992,519.031555 360.810638,532.529663 360.810425,546.021973 
	C360.809509,601.514587 360.809998,657.007263 360.809998,713.499939 
M447.499756,483.400452 
	C493.131439,483.400208 538.763184,483.426758 584.394653,483.327209 
	C586.903748,483.321747 590.214478,483.099487 591.795410,481.573029 
	C609.759766,464.227631 627.473328,446.622009 645.199219,429.030823 
	C646.359497,427.879333 647.072754,426.277344 648.302734,424.418091 
	C644.661438,424.418091 642.015381,424.418091 639.369263,424.418091 
	C587.908813,424.418030 536.448303,424.394867 484.987854,424.434174 
	C472.177826,424.443970 459.361298,424.470428 446.563354,424.926544 
	C443.922058,425.020691 440.748291,426.443115 438.840729,428.301239 
	C422.380493,444.335236 406.144623,460.599731 389.872192,476.826019 
	C388.153290,478.540070 386.629791,480.450134 384.011902,483.400482 
	C405.763763,483.400482 426.131744,483.400482 447.499756,483.400452 
M699.571960,287.914795 
	C718.209351,306.518707 736.846741,325.122620 755.484131,343.726501 
	C755.799316,343.397827 756.114441,343.069122 756.429565,342.740417 
	C756.429565,302.600006 756.429565,262.459595 756.429565,220.985443 
	C753.965576,223.284760 752.612793,224.474396 751.340942,225.744949 
	C733.785034,243.283997 716.238892,260.832794 698.693726,278.382568 
	C694.190979,282.886444 694.196350,282.891785 699.571960,287.914795 
M464.561096,805.933105 
	C454.601288,796.371277 444.561279,786.890747 434.730103,777.198425 
	C431.750031,774.260376 429.918549,774.687256 427.095642,777.539124 
	C413.282898,791.493103 399.233429,805.212769 385.278748,819.026428 
	C382.151031,822.122620 379.067810,825.263794 375.009186,829.344238 
	C412.953247,829.344238 449.379669,829.344238 487.502563,829.344238 
	C479.364410,821.006226 472.232391,813.699036 464.561096,805.933105 
M629.119751,456.619751 
	C620.295776,465.444092 611.525574,474.323303 602.610840,483.055023 
	C600.318848,485.300049 599.572937,486.856842 602.262085,489.508850 
	C613.989380,501.074554 625.495422,512.864197 637.143799,524.510559 
	C640.222107,527.588379 643.521423,530.445007 647.476685,534.103821 
	C647.476685,501.758423 647.476685,470.730621 647.476685,439.702820 
	C647.099243,439.512085 646.721802,439.321320 646.344360,439.130585 
	C640.769470,444.793610 635.194580,450.456635 629.119751,456.619751 
z"/>
<path fill="#2E2D2C" opacity="1.000000" stroke="none" 
	d="
M320.705139,747.000244 
	C320.705109,776.230469 320.705109,804.960571 320.705109,835.140076 
	C318.332031,833.008911 316.987610,831.904297 315.759186,830.683044 
	C295.907806,810.946350 276.090118,791.175720 256.222382,771.455505 
	C247.710480,763.006836 238.955063,754.796814 230.644730,746.156738 
	C228.697098,744.131775 227.089401,740.815796 227.052185,738.070374 
	C226.760757,716.581299 226.890121,695.086426 226.890121,673.593384 
	C226.890060,483.294769 226.890121,292.996124 226.890121,102.697502 
	C226.890137,100.429863 226.890106,98.162216 226.890106,94.519943 
	C229.113556,96.412880 230.369156,97.341095 231.461685,98.432556 
	C260.108337,127.051132 288.713501,155.711288 317.414490,184.275162 
	C319.874878,186.723770 320.608215,189.171661 320.600037,192.639679 
	C320.495667,236.954422 320.603577,281.269653 320.659973,325.584778 
	C320.661682,326.917603 320.702332,328.250397 320.702972,329.583191 
	C320.766327,460.391266 320.831116,591.199341 320.880615,722.007385 
	C320.883728,730.171692 320.766449,738.335938 320.705139,747.000244 
M244.750656,662.503235 
	C244.832001,685.833008 244.981567,709.163025 244.925491,732.492432 
	C244.916489,736.243042 245.847977,739.022705 248.618240,741.715820 
	C265.820404,758.439697 282.844910,775.346313 299.950531,792.169678 
	C301.047607,793.248657 302.329590,794.139648 304.715515,796.091614 
	C304.715515,792.157410 304.715515,789.726318 304.715515,787.295227 
	C304.715515,594.638916 304.717468,401.982605 304.700745,209.326309 
	C304.700409,205.665298 304.789551,201.957535 304.247650,198.360352 
	C303.905670,196.090378 302.992645,193.467880 301.437622,191.886978 
	C285.663422,175.850586 269.730408,159.969788 253.768173,144.119614 
	C251.376526,141.744751 248.604843,139.752640 246.008942,137.583481 
	C245.588135,137.796326 245.167313,138.009171 244.746506,138.222015 
	C244.746506,312.648895 244.746506,487.075806 244.750656,662.503235 
z"/>
<path fill="#302F2D" opacity="1.000000" stroke="none" 
	d="
M648.999756,173.638947 
	C547.039795,173.638901 445.579895,173.612030 344.120148,173.727493 
	C339.606628,173.732635 336.377960,172.511307 333.175903,169.270264 
	C306.715088,142.487244 280.081329,115.875099 253.511108,89.200073 
	C252.291321,87.975494 251.178223,86.644646 249.330490,84.608505 
	C254.733231,84.608505 258.981781,84.610970 263.230316,84.608139 
	C396.174805,84.519516 529.119263,84.435684 662.063782,84.314117 
	C665.809326,84.310692 668.949097,84.681541 671.936035,87.708862 
	C693.931091,110.001732 716.140381,132.083374 738.294128,154.219650 
	C744.275146,160.195984 750.296997,166.131470 756.300110,172.085724 
	C756.162781,172.603470 756.025513,173.121216 755.888245,173.638962 
	C720.425415,173.638962 684.962585,173.638962 648.999756,173.638947 
M525.500000,100.898338 
	C446.716492,100.898338 367.932983,100.898338 287.997314,100.898338 
	C289.444977,102.914482 289.834808,103.652771 290.399567,104.215523 
	C307.273468,121.029617 324.100739,137.891846 341.155243,154.521042 
	C342.798218,156.123032 345.864838,156.957016 348.277679,156.971603 
	C376.095337,157.139847 403.914398,157.061249 431.733032,157.085846 
	C525.199829,157.168518 618.666687,157.268555 712.133484,157.337997 
	C713.489380,157.339005 714.845520,157.031693 716.714050,156.806503 
	C715.878662,155.610733 715.580261,155.012436 715.131226,154.565491 
	C698.247986,137.761139 681.436768,120.882042 664.338196,104.299370 
	C662.372620,102.393059 658.798889,101.283791 655.961731,101.266289 
	C612.808716,101.000061 569.654175,100.977684 525.500000,100.898338 
z"/>
<path fill="#BCA172" opacity="1.000000" stroke="none" 
	d="
M431.067566,337.000000 
	C431.132202,361.994263 431.143890,386.488861 431.320007,410.982330 
	C431.345673,414.550751 430.450989,417.219727 427.815247,419.799103 
	C407.097687,440.073395 386.525299,460.495972 365.889191,480.853577 
	C364.730255,481.996857 363.403381,482.969879 361.715576,484.392120 
	C361.294556,482.992157 360.812042,482.136993 360.812195,481.281860 
	C360.827209,393.797302 360.878265,306.312714 360.928589,218.828156 
	C360.932556,211.944443 360.937439,211.931686 368.088837,211.936066 
	C491.899658,212.012054 615.710449,212.091415 739.521301,212.169739 
	C742.461670,212.171600 745.401978,212.169983 749.132324,212.169983 
	C748.281494,213.401367 747.948853,214.085831 747.438904,214.591522 
	C728.981934,232.891891 710.461548,251.128677 692.079834,269.504150 
	C688.671082,272.911682 685.055298,274.278870 680.164062,274.246399 
	C648.670532,274.037292 617.174805,274.098419 585.679932,274.150085 
	C547.190735,274.213226 508.701721,274.384003 470.212524,274.442474 
	C459.219116,274.459167 448.225433,274.234314 437.231659,274.153717 
	C435.433685,274.140564 433.634491,274.301880 431.067566,274.417023 
	C431.067566,295.326904 431.067566,315.913452 431.067566,337.000000 
z"/>
<path fill="#BCA171" opacity="1.000000" stroke="none" 
	d="
M360.809998,712.999878 
	C360.809998,657.007263 360.809509,601.514587 360.810425,546.021973 
	C360.810638,532.529663 361.041992,519.031555 360.697784,505.548096 
	C360.574585,500.723297 361.898865,499.359528 366.742096,499.376678 
	C414.235168,499.544922 461.729156,499.438904 509.222778,499.491821 
	C535.206116,499.520782 561.189636,499.664459 587.171814,499.899872 
	C589.151672,499.917816 591.673889,500.510925 593.007080,501.803253 
	C602.806091,511.301788 612.369751,521.043213 621.990601,530.724854 
	C622.420349,531.157288 622.687012,531.751648 623.369629,532.785522 
	C559.138550,532.785522 495.441254,532.785522 431.257172,532.785522 
	C431.083740,534.528931 430.820251,535.945007 430.819641,537.361206 
	C430.794098,596.014160 430.791473,654.667114 430.787720,713.320068 
	C430.786926,725.979187 430.490204,738.648315 430.911621,751.293518 
	C431.155426,758.608948 428.321930,763.879700 423.271790,768.792419 
	C407.389771,784.242432 391.672455,799.863708 376.032776,815.559631 
	C371.474457,820.134338 367.389496,825.180725 363.087646,830.010986 
	C362.328430,829.634583 361.569214,829.258179 360.809998,828.881775 
	C360.809998,790.421143 360.809998,751.960571 360.809998,712.999878 
z"/>
<path fill="#BBA171" opacity="1.000000" stroke="none" 
	d="
M446.999756,483.400452 
	C426.131744,483.400482 405.763763,483.400482 384.011902,483.400482 
	C386.629791,480.450134 388.153290,478.540070 389.872192,476.826019 
	C406.144623,460.599731 422.380493,444.335236 438.840729,428.301239 
	C440.748291,426.443115 443.922058,425.020691 446.563354,424.926544 
	C459.361298,424.470428 472.177826,424.443970 484.987854,424.434174 
	C536.448303,424.394867 587.908813,424.418030 639.369263,424.418091 
	C642.015381,424.418091 644.661438,424.418091 648.302734,424.418091 
	C647.072754,426.277344 646.359497,427.879333 645.199219,429.030823 
	C627.473328,446.622009 609.759766,464.227631 591.795410,481.573029 
	C590.214478,483.099487 586.903748,483.321747 584.394653,483.327209 
	C538.763184,483.426758 493.131439,483.400208 446.999756,483.400452 
z"/>
<path fill="#BCA171" opacity="1.000000" stroke="none" 
	d="
M699.300598,287.687988 
	C694.196350,282.891785 694.190979,282.886444 698.693726,278.382568 
	C716.238892,260.832794 733.785034,243.283997 751.340942,225.744949 
	C752.612793,224.474396 753.965576,223.284760 756.429565,220.985443 
	C756.429565,262.459595 756.429565,302.600006 756.429565,342.740417 
	C756.114441,343.069122 755.799316,343.397827 755.484131,343.726501 
	C736.846741,325.122620 718.209351,306.518707 699.300598,287.687988 
z"/>
<path fill="#B99F70" opacity="1.000000" stroke="none" 
	d="
M464.830750,806.162476 
	C472.232391,813.699036 479.364410,821.006226 487.502563,829.344238 
	C449.379669,829.344238 412.953247,829.344238 375.009186,829.344238 
	C379.067810,825.263794 382.151031,822.122620 385.278748,819.026428 
	C399.233429,805.212769 413.282898,791.493103 427.095642,777.539124 
	C429.918549,774.687256 431.750031,774.260376 434.730103,777.198425 
	C444.561279,786.890747 454.601288,796.371277 464.830750,806.162476 
z"/>
<path fill="#B99F70" opacity="1.000000" stroke="none" 
	d="
M629.369751,456.369690 
	C635.194580,450.456635 640.769470,444.793610 646.344360,439.130585 
	C646.721802,439.321320 647.099243,439.512085 647.476685,439.702820 
	C647.476685,470.730621 647.476685,501.758423 647.476685,534.103821 
	C643.521423,530.445007 640.222107,527.588379 637.143799,524.510559 
	C625.495422,512.864197 613.989380,501.074554 602.262085,489.508850 
	C599.572937,486.856842 600.318848,485.300049 602.610840,483.055023 
	C611.525574,474.323303 620.295776,465.444092 629.369751,456.369690 
z"/>
<path fill="#BCA171" opacity="1.000000" stroke="none" 
	d="
M244.748581,662.002930 
	C244.746506,487.075806 244.746506,312.648895 244.746506,138.222015 
	C245.167313,138.009171 245.588135,137.796326 246.008942,137.583481 
	C248.604843,139.752640 251.376526,141.744751 253.768173,144.119614 
	C269.730408,159.969788 285.663422,175.850586 301.437622,191.886978 
	C302.992645,193.467880 303.905670,196.090378 304.247650,198.360352 
	C304.789551,201.957535 304.700409,205.665298 304.700745,209.326309 
	C304.717468,401.982605 304.715515,594.638916 304.715515,787.295227 
	C304.715515,789.726318 304.715515,792.157410 304.715515,796.091614 
	C302.329590,794.139648 301.047607,793.248657 299.950531,792.169678 
	C282.844910,775.346313 265.820404,758.439697 248.618240,741.715820 
	C245.847977,739.022705 244.916489,736.243042 244.925491,732.492432 
	C244.981567,709.163025 244.832001,685.833008 244.748581,662.002930 
z"/>
<path fill="#BCA171" opacity="1.000000" stroke="none" 
	d="
M526.000000,100.898331 
	C569.654175,100.977684 612.808716,101.000061 655.961731,101.266289 
	C658.798889,101.283791 662.372620,102.393059 664.338196,104.299370 
	C681.436768,120.882042 698.247986,137.761139 715.131226,154.565491 
	C715.580261,155.012436 715.878662,155.610733 716.714050,156.806503 
	C714.845520,157.031693 713.489380,157.339005 712.133484,157.337997 
	C618.666687,157.268555 525.199829,157.168518 431.733032,157.085846 
	C403.914398,157.061249 376.095337,157.139847 348.277679,156.971603 
	C345.864838,156.957016 342.798218,156.123032 341.155243,154.521042 
	C324.100739,137.891846 307.273468,121.029617 290.399567,104.215523 
	C289.834808,103.652771 289.444977,102.914482 287.997314,100.898338 
	C367.932983,100.898338 446.716492,100.898338 526.000000,100.898331 
z"/>
</svg>